# xmcd
#
# Track frame offsets: 
#        150
#        16026
#        33379
#        51391
#        67834
#        88948
#        105887
#        123227
#        140351
#        155764
#        171805
#        185418
#        203125
#        212407
#        223058
#        232197
#        243358
#
# Disc length: 3385 seconds
#
# Revision: 7
# Processed by: cddbd v1.5.2PL0 Copyright (c) Steve Scherf et al.
# Submitted via: ExactAudioCopyFreeDBPlugin 1.0
#
DISCID=e90d3711
DTITLE=Casa Musica - The Latin Club - Senora Latina 2
DYEAR=1900
DGENRE=Tanzmusik
TTITLE0=El Baile De Ombligo [Samba 50 bpm]
TTITLE1=Que Sera? [Samba 50 bpm]
TTITLE2=Agua Dulce Agua Sala [Samba 50 bpm]
TTITLE3=La Chica De Cuba [Samba 50 bpm]
TTITLE4=Boca Dulce Boca [Chachacha 31 bpm]
TTITLE5=Las Cadenas De Tu Amor [Chachacha 31 bpm]
TTITLE6=Guajira [Chachacha 31 bpm]
TTITLE7=Pancho Villa [Chachacha 31 bpm]
TTITLE8=Entre Mis Requerdos [Rumba 25 bpm]
TTITLE9=Si Mañana Tu No Estas [Rumba 25 bpm]
TTITLE10=Adios Amor (Ya Lo Se Que Te Vas) [Rumba 25 bpm]
TTITLE11=Mi Dios Mi Cruz [Rumba 25 bpm]
TTITLE12=Ronda [Paso Doble 61 bpm]
TTITLE13=Be My Guest [Jive 42 bpm]
TTITLE14=You're By My Side [Jive 42 bpm]
TTITLE15=Bread And Butter [Jive 42 bpm]
TTITLE16=The Shape I'm In [Jive 43 bpm]
EXTD=
EXTT0=
EXTT1=
EXTT2=
EXTT3=
EXTT4=
EXTT5=
EXTT6=
EXTT7=
EXTT8=
EXTT9=
EXTT10=
EXTT11=
EXTT12=
EXTT13=
EXTT14=
EXTT15=
EXTT16=
PLAYORDER=
